<?xml version="1.0" encoding="utf-8"?>
<!-- Generator: Adobe Illustrator 16.0.0, SVG Export Plug-In . SVG Version: 6.00 Build 0)  -->
<!DOCTYPE svg PUBLIC "-//W3C//DTD SVG 1.1//EN" "http://www.w3.org/Graphics/SVG/1.1/DTD/svg11.dtd">
<svg version="1.1" id="Camada_1" xmlns="http://www.w3.org/2000/svg" xmlns:xlink="http://www.w3.org/1999/xlink" x="0px" y="0px"
	 width="485px" height="517px" viewBox="0 0 485 517" enable-background="new 0 0 485 517" xml:space="preserve">
<g>
	
		<path fill="none" stroke="#E8431F" stroke-width="7" stroke-linecap="round" stroke-linejoin="round" stroke-miterlimit="22.9256" d="
		M252.181,35.98c0.22-0.106,0.436-0.221,0.648-0.337 M224.254,208.922l-0.002,0.029l-0.003,0.027l-0.002,0.031l-0.002,0.027
		l-0.003,0.027l-0.002,0.031l-0.002,0.027l-0.004,0.028l-0.002,0.028l-0.003,0.028l-0.002,0.03l-0.001,0.027l-0.003,0.028
		l-0.001,0.029l-0.002,0.029l-0.002,0.027l-0.001,0.029l-0.002,0.029l-0.004,0.058l-0.002,0.027l-0.003,0.058l-0.002,0.029
		l-0.002,0.028l-0.002,0.03v0.028l-0.002,0.028l-0.001,0.029l-0.002,0.029l0,0l-0.002,0.027v0.028l-0.001,0.03l-0.003,0.028
		l-0.009,0.259v0.028l-0.002,0.03l-0.002,0.028v0.027l-0.005,0.435v0.028v0.029l0.003,0.392l0.002,0.065v0.035v0.031l0.016,0.388
		l0.003,0.066v0.004l0.003,0.06l0.023,0.386l0.003,0.039l0.041,0.475l0.002,0.008l0.005,0.054l0.045,0.382l0.003,0.041l0.004,0.021
		l0.042,0.317l0.01,0.063l0.01,0.062l0.002,0.012l0.008,0.052l0.01,0.063l0.009,0.062l0.01,0.063l0.023,0.125l0.01,0.063
		l0.008,0.044l0.002,0.018l0.011,0.062l0.014,0.062l0.01,0.062l0.013,0.064l0.023,0.123l0.013,0.062l0.002,0.015l0.01,0.046
		l0.014,0.062l0.013,0.06l0.014,0.062L36.617,360.579l101.045-167.881l0.027,0.001l0.027,0.002l0.027,0.002l0.028,0.004l0.027,0.002
		l0.027,0.001l0.026,0.002l0.028,0.002l0.027,0.004l0.11,0.007l0.027,0.002l0.028,0.002l0.026,0.002l0.027,0.002l0.029,0.001
		l0.028,0.002l0.026,0.002h0.027l0.028,0.001l0.027,0.003l0.027,0.002l0.027,0.001l0.027,0.002h0.029l0.081,0.006h0.029l0.027,0.001
		l0.028,0.002h0.026l0.027,0.002h0.027l0.028,0.001l0.028,0.002h0.027l0.028,0.002h0.027l0.028,0.002h0.028l0.027,0.002h0.028
		l0.027,0.001h0.006h0.021h0.027l0.388,0.006h0.028h0.026l0.467-0.006h0.025l0.044-0.001l0.41-0.015l0.052-0.003
		c0.467-0.022,0.93-0.065,1.388-0.123l0.04-0.004l0.473-0.068h0.004l0.396-0.065l0.071-0.012l0.046-0.01l0.256-0.046l0.165-0.033
		l0.088-0.019l0.369-0.082l0.012-0.001l0.374-0.091l0.077-0.021l0.021-0.004l0.397-0.108l0.035-0.01l0.45-0.135h0.007l0.438-0.143
		l0.046-0.017l0.376-0.131l0.027-0.01l0.415-0.158l0.023-0.01l0.347-0.141l0.07-0.029l0.015-0.008l0.378-0.165l0.031-0.013
		l0.017-0.009l0.402-0.188l0.008-0.003l0.386-0.193l0.019-0.008l0.046-0.023l0.336-0.18l0.025-0.013l0.082-0.045l0.297-0.166
		l0.052-0.028c0.248-0.143,0.49-0.292,0.731-0.444l0.025-0.017h0.003l0.379-0.254l0.01-0.005l0.367-0.254l0.044-0.031l0.203-0.146
		l0.124-0.093l0.077-0.056l0.196-0.152l0.028-0.021l0.138-0.11l0.031-0.025l0.195-0.156l0.052-0.044l0.002-0.002l0.328-0.276
		l0.019-0.018l0.34-0.299l0.002-0.002l0.012-0.012l0.316-0.295l0.008-0.006l0.04-0.039l0.263-0.259l0.023-0.021l0.07-0.071
		l0.176-0.178l0.073-0.08l0.097-0.102l0.171-0.183l0.045-0.049l0.121-0.137l0.165-0.188L224.254,208.922L224.254,208.922z
		 M232.851,34.548l0.208,0.143l0.021,0.015l0.266,0.176l0.033,0.023l0.203,0.129l0.128,0.079l0.223,0.136l0.297,0.177l0.017,0.01
		l0.286,0.161l0.006,0.003l0.265,0.143l0.079,0.04l0.257,0.133l0.029,0.014c0.181,0.093,0.365,0.182,0.55,0.269l0.083,0.039
		l0.188,0.083l0.202,0.088l0.213,0.091l0.01,0.003l0.098,156.425l-0.123,0.048l-0.124,0.048l-0.043,0.016l-0.081,0.031l-0.122,0.05
		l-0.122,0.05l-0.01,0.004l-0.113,0.049l-0.122,0.052l-0.122,0.054l-0.12,0.053l-0.12,0.054l-0.119,0.056l-0.355,0.17l-0.118,0.06
		l-0.118,0.06l-0.118,0.058l-0.115,0.062l-0.118,0.062l-0.103,0.055l-0.012,0.007l-0.115,0.064l-0.114,0.063l-0.115,0.063
		l-0.112,0.068l-0.114,0.065l-0.112,0.068l-0.223,0.135l-0.11,0.069l-0.112,0.07l-0.11,0.07l-0.11,0.071l-0.108,0.073l-0.015,0.01
		l-0.193,0.13l-0.008,0.006l-0.108,0.073l-0.106,0.075l-0.106,0.076l-0.106,0.077l-0.105,0.077c-0.209,0.154-0.416,0.315-0.62,0.477
		l-0.1,0.083l-0.189,0.154l-0.014,0.012l-0.099,0.083l-0.196,0.169l-0.098,0.087l-0.097,0.087l-0.193,0.175l-0.097,0.089
		l-0.095,0.088l-0.044,0.04l-0.05,0.048l-0.093,0.091l-0.093,0.093l-0.185,0.183l-0.091,0.093l-71.125-22.92l0.002-0.011v-0.014
		l0.002-0.012v-0.016V174.5v-0.012v-0.015l0.002-0.013v-0.013v-0.012v-0.012l0.001-0.013v-0.014v-0.013v-0.012v-0.014l0.002-0.011
		v-0.014v-0.013l0.002-0.012v-0.014v-0.012v-0.013v-0.014l0.002-0.013v-0.01v-0.002v-0.013v-0.014v-0.012v-0.013v-0.012l0.002-0.027
		v-0.014v-0.012l0.003-0.22v-0.012v-0.065v-0.012v-0.013v-0.012v-0.016v-0.012v-0.013l-0.005-0.492l-0.002-0.046l-0.014-0.359
		l-0.002-0.08l-0.005-0.097l-0.023-0.355l-0.004-0.035l-0.042-0.48v-0.014c-0.031-0.294-0.068-0.583-0.11-0.873l-0.012-0.067
		l-0.016-0.104l-0.028-0.174l-0.029-0.171l-0.004-0.021l-0.027-0.15l-0.033-0.17l-0.028-0.147l-0.006-0.023l-0.037-0.171
		l-0.037-0.168l-0.021-0.099l-0.017-0.069l-0.04-0.17l-0.041-0.166l-0.014-0.054l-0.03-0.112l-0.044-0.168l-0.046-0.166
		l-0.002-0.009l-0.01-0.029l-0.085-0.291l-0.038-0.128l-0.012-0.035l-0.053-0.164l-0.054-0.163l-0.027-0.085l-0.028-0.077
		l-0.055-0.161l-0.058-0.162l-0.04-0.108l-0.02-0.05l-0.06-0.161l-0.06-0.156l-0.001-0.002l-0.063-0.158l-0.064-0.156l-0.011-0.029
		l-0.054-0.129l-0.068-0.154l-0.068-0.155l-0.03-0.069l-0.041-0.087l-0.131-0.279l-0.012-0.026l-0.014-0.027l-0.062-0.125
		l-0.075-0.151l-0.068-0.137l-0.007-0.014l-0.08-0.151l-0.077-0.148l-0.006-0.01l-0.075-0.139l-0.081-0.148l-0.083-0.146
		l-0.029-0.053l-0.056-0.092l-0.085-0.145l-0.162-0.269l-0.012-0.019l-0.091-0.143l-0.089-0.141l-0.093-0.141L232.851,34.548
		L232.851,34.548z M29.836,122.158l98.155-54.34l97.397-54.047l-0.021,0.073v0.003l-0.021,0.074v0.002l-0.021,0.075V14l-0.019,0.075
		l-0.002,0.002l-0.02,0.075v0.001l-0.019,0.075l-0.002,0.002l-0.017,0.078h-0.001l-0.018,0.077l-0.002,0.002l-0.017,0.076
		l-0.003,0.002l-0.017,0.077v0.003l-0.017,0.075l-0.003,0.002l-0.017,0.077l0,0l-0.017,0.078v0.001l-0.018,0.077v0.002l-0.015,0.077
		l-0.002,0.002l-0.016,0.075l-0.001,0.002l-0.015,0.077v0.002l-0.016,0.078v0.002l-0.016,0.077v0.002l-0.016,0.078v0.002
		l-0.015,0.077v0.003l-0.013,0.078l0,0l-0.016,0.08l0,0l-0.013,0.079l0,0l-0.014,0.08v0.002l-0.013,0.078v0.003l-0.014,0.077v0.003
		l-0.012,0.077v0.004l-0.011,0.078v0.001l-0.012,0.08v0.002l-0.014,0.077v0.002l-0.01,0.08v0.001l-0.011,0.08v0.002l-0.01,0.079
		v0.002l-0.011,0.079v0.002l-0.01,0.08l0,0l-0.009,0.081v0.002l-0.008,0.079v0.002l-0.01,0.079v0.002l-0.007,0.08v0.001l-0.01,0.08
		v0.002l-0.008,0.081l0,0l-0.007,0.081v0.002l-0.006,0.081l0,0l-0.008,0.081v0.002l-0.005,0.08v0.002l-0.006,0.081l-0.005,0.083l0,0
		l-0.006,0.083l-0.005,0.081v0.002l-0.003,0.081v0.002l-0.004,0.081l-0.004,0.083l-0.003,0.083l-0.004,0.083l-0.002,0.083
		l-0.002,0.083l-0.003,0.083l0,0l-0.002,0.083l-0.002,0.082v0.086v0.082l0,0l-0.002,0.083v0.085l0.006,0.473l0.003,0.068
		l0.012,0.338l0.005,0.148l0.03,0.438v0.005l0.04,0.445l0.01,0.085l0.043,0.375l0.009,0.078l0.055,0.386l0.008,0.058l0.002,0.013
		v0.008l0.067,0.405l0.008,0.042l0.047,0.253l0.042,0.216l0.013,0.057l0.051,0.234L145.33,155.642l-0.086-0.028l-0.089-0.027
		l-0.175-0.056l-0.087-0.027l-0.088-0.025l-0.088-0.025l-0.089-0.027l0,0l-0.088-0.023l-0.089-0.025l-0.088-0.025l-0.088-0.023
		l-0.18-0.046l-0.089-0.022l-0.09-0.021l-0.091-0.021l-0.272-0.063l-0.09-0.02l-0.091-0.02l-0.274-0.055l-0.09-0.018l-0.093-0.017
		l-0.183-0.035l-0.093-0.015l-0.093-0.016l-0.092-0.013l-0.093-0.016l-0.093-0.013l-0.092-0.013l-0.093-0.014l-0.095-0.014
		l-0.093-0.014l-0.05-0.005l-0.042-0.006l-0.094-0.012l-0.189-0.021l-0.093-0.01l-0.06-0.008l-0.035-0.001l-0.095-0.01l-0.188-0.017
		l-0.095-0.008l-0.07-0.005l-0.025-0.001l-0.382-0.026l-0.077-0.004l-0.018-0.001l-0.288-0.01l-0.096-0.003l-0.087-0.002
		l-0.008-0.002l-0.484-0.005l-0.485,0.008h-0.013l-0.433,0.016l-0.048,0.001l-0.039,0.002c-0.309,0.018-0.618,0.041-0.923,0.071
		l-0.02,0.002c-0.305,0.031-0.609,0.071-0.911,0.116l-0.063,0.01l-0.389,0.063l-0.031,0.006L136.046,155l-0.075,0.015l-0.34,0.063
		l-0.085,0.018l-0.371,0.081l-0.06,0.014l-0.077,0.019l-0.361,0.087l-0.02,0.005l-0.062,0.015c-0.284,0.073-0.564,0.155-0.842,0.241
		l-0.018,0.004l-0.388,0.127l-0.04,0.014l-0.133,0.046l-0.28,0.099l-0.027,0.009l-0.052,0.02l-0.336,0.128l-0.046,0.019
		l-0.089,0.035l-0.271,0.11l-0.07,0.029l-0.052,0.023l-0.309,0.137l-0.063,0.027l-0.042,0.02l-0.267,0.123l-0.021,0.012
		l-0.216,0.104l-0.025,0.012l-0.261,0.129l-0.002,0.001l-0.065,0.035l-0.304,0.16l-0.068,0.037l-0.25,0.14l-0.276,0.16l-0.104,0.062
		l-0.201,0.122l-0.246,0.153l-0.218,0.141l-0.028,0.017l-0.214,0.143l-0.026,0.018l-0.24,0.165l-0.021,0.016l-0.198,0.14
		l-0.038,0.03c-0.228,0.164-0.45,0.334-0.67,0.507l-0.226,0.183l-0.044,0.037l-0.177,0.148l-0.016,0.012l-0.204,0.176l-0.216,0.193
		l-0.17,0.152l-0.044,0.043l-0.198,0.185l-0.012,0.013l-0.207,0.201l-0.016,0.015l-0.191,0.189l-0.2,0.209l-0.197,0.208
		l-0.002,0.002l-0.194,0.214l-0.191,0.216l-0.174,0.201l-0.028,0.035c-0.494,0.584-0.954,1.199-1.376,1.839l-83.726-26.98
		l-0.043-0.284v-0.002c-0.058-0.373-0.129-0.741-0.21-1.105l-0.008-0.043c-0.083-0.365-0.174-0.724-0.276-1.081v-0.006l-0.163-0.536
		l-0.027-0.083l-0.062-0.186l-0.04-0.12l-0.051-0.145l-0.195-0.529l-0.09-0.231l-0.012-0.029c-0.095-0.237-0.197-0.473-0.301-0.704
		l-0.029-0.068l-0.037-0.083l-0.082-0.169l-0.055-0.118l-0.064-0.133l-0.077-0.153l-0.048-0.097l-0.039-0.075l-0.221-0.417
		l-0.135-0.243l-0.008-0.012l-0.131-0.228l-0.027-0.048l-0.113-0.189l-0.05-0.083l-0.097-0.154l-0.071-0.114l-0.076-0.12
		l-0.035-0.05l-0.117-0.182l-0.12-0.179l-0.035-0.05l-0.147-0.209l-0.012-0.017l-0.162-0.225l-0.012-0.015l-0.153-0.206
		l-0.037-0.048l-0.131-0.172l-0.062-0.079l-0.11-0.138l-0.086-0.108l-0.088-0.106l-0.113-0.138l-0.062-0.073l-0.145-0.166
		l-0.037-0.043l-0.172-0.195l-0.009-0.012l-0.188-0.205l-0.015-0.017l-0.172-0.184l-0.046-0.046l-0.146-0.15l-0.072-0.075
		l-0.121-0.123l-0.102-0.1l-0.095-0.093l-0.133-0.125l-0.068-0.063l-0.165-0.153l-0.039-0.035l-0.196-0.178l-0.008-0.005
		l-0.208-0.182l-0.021-0.02l-0.189-0.158l-0.054-0.044l-0.028-0.023l-0.218-0.176l-0.129-0.104l-0.009-0.006l-0.209-0.162
		l-0.152-0.116l-0.069-0.05l-0.186-0.137l-0.037-0.028l-0.221-0.156l-0.005-0.003l-0.228-0.155l-0.03-0.021l-0.06-0.04l-0.205-0.133
		l-0.168-0.108l-0.098-0.062l-0.137-0.085l-0.133-0.081l-0.104-0.062l-0.17-0.101l-0.069-0.04l-0.207-0.116l-0.035-0.019
		l-0.245-0.133L29.836,122.158L29.836,122.158z M13.174,361.348V258.954V156.436c2.366,1.06,4.989,1.645,7.745,1.645l0.49-0.006
		h0.008l0.461-0.017l0.02-0.003H21.9h0.023l0.444-0.028l0.037-0.004l0.459-0.041h0.004l0.456-0.052l0.035-0.005l0.456-0.063
		l0.005-0.002l0.384-0.062l0.191-0.035l0.044-0.007l0.311-0.063h0.007l0.111-0.025l0.301-0.065l0.096-0.021l0.326-0.081l0.077-0.017
		l0.01-0.003l0.083-0.021c0.259-0.07,0.516-0.141,0.77-0.221l0.039-0.012l0.012-0.003l0.083-0.025l0.301-0.098l0.063-0.02
		l0.133-0.046l0.291-0.104l0.015-0.006l0.274-0.104l0.044-0.016l0.21-0.083l0.033-0.013l0.286-0.118l0.017-0.005l0.267-0.116
		l0.021-0.011l0.23-0.102l0.028-0.013l0.278-0.131l0.02-0.008l0.256-0.127l0.073-0.037l0.172-0.088l0.028-0.014l0.27-0.143
		l0.02-0.011l0.249-0.137l0.035-0.021l0.218-0.124l0.048-0.031c0.251-0.146,0.5-0.299,0.743-0.459l0.254-0.168l0.021-0.014
		l0.229-0.158l0.012-0.01l0.224-0.156l0.054-0.04c0.231-0.17,0.463-0.341,0.687-0.521l0.236-0.191l0.207-0.174l0.041-0.035
		c0.303-0.256,0.596-0.522,0.88-0.797l0.008-0.006l0.216-0.211l0.025-0.023l0.189-0.193l0.003-0.008
		c0.281-0.288,0.554-0.585,0.814-0.89l0.195-0.234c0.517-0.624,0.998-1.282,1.432-1.971l0.161-0.259l0.158-0.26l83.121,26.783
		l0.021,0.214v0.005c0.044,0.437,0.104,0.871,0.178,1.299l0.019,0.118l0.02,0.097l0.041,0.212l0.031,0.158l0.011,0.055l0.077,0.359
		l0.011,0.05l0.005,0.012l0.009,0.039l0.091,0.38l0.007,0.027l0.104,0.386l0.02,0.068l0.002,0.005l0.098,0.338l0.033,0.106
		l0.003,0.016l0.141,0.428l0.02,0.058l0.069,0.201l0.066,0.183l0.008,0.018l0.14,0.368l0.01,0.027l0.008,0.021l0.071,0.176
		l0.079,0.195l0.068,0.156l0.015,0.039l0.085,0.194l0.043,0.094l0.044,0.099l0.136,0.288l0.017,0.032l0.03,0.06l0.092,0.189
		l0.083,0.166l0.012,0.021l0.097,0.187l0.101,0.184l0.005,0.015l0.095,0.168l0.103,0.183l0.105,0.182l0.106,0.181l0.05,0.083
		l0.058,0.097l0.113,0.176l0.007,0.013l0.104,0.163l0.116,0.175l0.097,0.149l0.017,0.025l0.12,0.172l0.12,0.171l0.003,0.008
		l0.12,0.163l0.122,0.168l0.029,0.04l0.097,0.125l0.127,0.166l0.129,0.164l0.131,0.163l0.016,0.019l0.117,0.141l0.133,0.16
		l0.043,0.048l0.095,0.11l0.135,0.156l0.054,0.058l0.18,0.199l0.048,0.052l0.143,0.151l0.12,0.125l0.022,0.025l0.147,0.149
		l0.058,0.06l0.088,0.087l0.151,0.145L22.633,359.495h-0.019h-0.02l-0.017-0.005H22.56h-0.019l-0.018-0.004h-0.019l-0.184-0.007
		h-0.017h-0.02l-0.017-0.004h-0.02H22.23h-0.02l-0.017-0.004h-0.02h-0.017h-0.02l-0.017-0.005h-0.02h-0.02h-0.017h-0.02h-0.017
		h-0.02h-0.017l-0.02-0.004h-0.017h-0.008h-0.012h-0.017h-0.02h-0.02l-0.017-0.004h-0.02h-0.017l-0.297-0.003H21.51h-0.02h-0.017
		h-0.02C18.483,359.456,15.68,360.135,13.174,361.348L13.174,361.348z M230.152,295.272c-0.183,0.159-0.365,0.321-0.544,0.484
		 M49.488,366.436l181.72-140.897l0.073,0.06l0.075,0.06l0.151,0.118l0.075,0.057l0.078,0.06l0.075,0.058l0.075,0.058l0.08,0.058
		l0.075,0.056l0.079,0.056l0.077,0.056l0.062,0.046l0.016,0.01l0.079,0.056l0.08,0.054l0.077,0.056l0.08,0.054l0.08,0.052
		l0.08,0.055l0.08,0.052l0.081,0.055l0.162,0.104l0.082,0.05l0.081,0.053l0.081,0.05l0.081,0.05l0.012,0.008l0.073,0.04l0.082,0.05
		l0.083,0.051l0.083,0.048l0.075,0.044l0.008,0.004l0.085,0.045l0.083,0.049l0.085,0.045l0.084,0.046l0.056,0.033l0.028,0.014
		l0.084,0.046l0.085,0.044l0.087,0.045l0.084,0.045l0.087,0.043l0.087,0.043l0.085,0.043l0.086,0.042l0.087,0.043l0.089,0.043
		l0.086,0.042l0.087,0.04l0.086,0.041l0.178,0.079l0.088,0.041l0.089,0.037l0.088,0.041l0.18,0.076l0.089,0.037l0.09,0.037
		l0.091,0.037l0.05,0.019l0.039,0.016l0.091,0.035l0.093,0.034l0.09,0.035l0.04,63.08c-1.761,0.575-3.41,1.402-4.903,2.437
		l-0.095,0.066c-0.487,0.34-0.954,0.702-1.405,1.084l-0.02,0.015c-0.183,0.159-0.365,0.321-0.544,0.484l-0.249,0.23l-0.02,0.02
		l-0.263,0.259l-0.258,0.259l-0.216,0.228l-0.087,0.096l-0.177,0.193l-0.02,0.02l-0.22,0.25l-0.021,0.029l-0.239,0.276l-0.203,0.252
		l-0.04,0.05l-0.211,0.27l-0.007,0.011l-0.216,0.286l-0.191,0.263l-0.025,0.039l-0.21,0.3l-0.14,0.21l-0.09,0.139l-0.138,0.213
		l-0.063,0.104l-0.145,0.235l-0.02,0.031l-0.162,0.278l-0.023,0.043l-0.182,0.323l-0.02,0.03l-0.154,0.295l-0.01,0.018l-0.122,0.245
		l-0.037,0.067l-0.098,0.198l-0.023,0.054l-0.115,0.247l-0.056,0.119l-0.023,0.054l-0.148,0.341l-0.111,0.263l-0.032,0.081
		l-0.046,0.115l-0.031,0.081l-0.104,0.274l-0.063,0.165l-0.023,0.063l-0.1,0.289l-0.021,0.066l-0.115,0.358l-0.008,0.023
		l-0.04,0.134l-0.083,0.286l-0.033,0.109l-0.072,0.27L49.488,366.436L49.488,366.436z M224.352,503.555l-96.36-53.471l-98.18-54.481
		l0.291-0.143l0.003-0.004l0.291-0.152h0.002l0.286-0.153l0.003-0.003l0.283-0.163h0.003l0.279-0.166h0.004l0.276-0.17l0.004-0.004
		l0.273-0.173l0.002-0.005l0.27-0.178h0.004l0.266-0.186l0.003-0.003l0.263-0.185l0.003-0.005l0.261-0.193h0.002l0.259-0.196
		l0.002-0.004l0.253-0.2h0.003l0.249-0.205l0.002-0.004l0.248-0.209l0.001-0.003l0.243-0.213l0.002-0.004l0.241-0.216l0.002-0.004
		l0.235-0.22l0.002-0.003l0.232-0.226v-0.003l0.229-0.229l0.002-0.003l0.224-0.234h0.002l0.22-0.239h0.002l0.216-0.245h0.003
		l0.211-0.246l0,0l0.209-0.25h0.002l0.203-0.256h0.002l0.198-0.259h0.002l0.195-0.259l0.143-0.196l0.05-0.07v-0.003l0.045-0.058
		l0.288-0.425l0.038-0.054l0,0l0.178-0.275l0.002-0.003l0.171-0.273l0.002-0.004l0.168-0.278v-0.004l0.164-0.282h0.002l0.158-0.286
		l0.002-0.003l0.152-0.29h0.002l0.149-0.293h0.002l0.143-0.298h0.001l0.14-0.297v-0.003l0.133-0.303h0.002l0.129-0.304l0,0
		l0.124-0.305l0.001-0.004l0.118-0.309l0,0l0.113-0.313l0.111-0.313v-0.003l0.102-0.318l0,0l0.099-0.319l0,0l0.093-0.323
		l0.086-0.325l0.041-0.167l185.294-65.294l0.083,0.179l0.063,0.13l0.118,0.24l0.08,0.155l0.131,0.246l0.052,0.101l0.023,0.043
		l0.181,0.323l0.166,0.282l0.027,0.046l0.159,0.256l0.063,0.104l0.126,0.203l0.113,0.166l0.129,0.193l0.208,0.302l0.02,0.027
		l0.196,0.272l0.015,0.021c0.136,0.182,0.272,0.362,0.414,0.541l0.058,0.069c0.364,0.456,0.752,0.892,1.158,1.312l0.05,0.052
		l0.228,0.23l0.262,0.255c0.266,0.251,0.541,0.502,0.821,0.738c0.833,0.709,1.729,1.347,2.679,1.906l0.029,0.016
		c0.631,0.37,1.288,0.706,1.965,1.004l0.015,0.007c0.566,0.247,1.147,0.467,1.739,0.665l0.101,158.859
		C229.773,489.323,224.759,495.827,224.352,503.555L224.352,503.555z M260.836,304.649l-0.017-0.054l-0.013-0.039l-0.114-0.39
		l-0.043-0.14l-0.105-0.319l-0.018-0.066l-0.151-0.416l-0.004-0.017l-0.127-0.339l-0.035-0.081l-0.101-0.259l-0.03-0.069
		l-0.09-0.209l-0.022-0.054l-0.116-0.263l-0.03-0.066l-0.15-0.326l-0.016-0.027l-0.185-0.379l-0.052-0.096l-0.149-0.286
		l-0.054-0.097l-0.206-0.362l-0.011-0.023l-0.182-0.309l-0.004-0.008l-0.11-0.179l-0.125-0.196l-0.041-0.073l-0.103-0.149
		l-0.153-0.232l-0.043-0.066l-0.203-0.293l-0.013-0.02l-0.196-0.27l-0.074-0.097l-0.05-0.066l-0.196-0.253l-0.056-0.073
		l-0.189-0.232l-0.076-0.097l-0.02-0.023l-0.034-0.043c-0.163-0.196-0.329-0.386-0.502-0.575l-0.043-0.05l-0.127-0.14l-0.182-0.192
		l-0.062-0.064l-0.252-0.256l-0.007-0.007l-0.011-0.013l-0.309-0.3l-0.023-0.023l-0.256-0.235l-0.104-0.097l-0.232-0.205
		l-0.069-0.062l-0.03-0.028l-0.273-0.227l-0.043-0.039l-0.063-0.047l-0.23-0.188l-0.205-0.159l-0.03-0.026l-0.271-0.202
		l-0.284-0.211l-0.009-0.005l-0.286-0.2l-0.088-0.058l-0.209-0.139l-0.05-0.031l-0.205-0.136l-0.047-0.026l-0.263-0.166
		l-0.041-0.023l-0.309-0.186l-0.047-0.023l-0.266-0.15l-0.036-0.02l-0.203-0.11l-0.174-0.093l-0.212-0.109l-0.032-0.016
		c-0.193-0.097-0.386-0.188-0.583-0.28l-0.046-0.021l-0.088-0.042l-0.108-0.047l-0.236-0.104l-0.146-0.063l-0.27-0.111l-0.093-0.035
		l-0.054-0.023l-0.34-0.127l-0.043-63.022l0.22-0.071l0.051-0.016l0.169-0.06l0.22-0.077l0.217-0.081l0.212-0.082l0.06-0.023
		l0.157-0.062l0.212-0.088l0.209-0.091l0.213-0.09l0.207-0.097l0.206-0.096l0.207-0.101l0.205-0.102l0.177-0.091l0.023-0.014
		l0.205-0.108l0.197-0.108l0.2-0.112l0.188-0.108l0.01-0.006l0.196-0.115l0.162-0.099l0.03-0.019l0.193-0.122l0.192-0.123
		l0.189-0.125l0.081-0.054l0.108-0.073l0.185-0.129l0.082-0.058l0.104-0.073l0.182-0.133l0.178-0.136l0.003-0.002l0.183-0.137
		l0.016-0.012l0.138-0.112l0.023-0.017l0.175-0.141l0.011-0.012l0.153-0.125l0.013-0.008l0.17-0.146l0.093-0.078l0.08-0.069
		l0.17-0.151l0.09-0.083l0.076-0.069l0.166-0.155l0.094-0.086l0.069-0.069l0.166-0.159l0.093-0.09l0.064-0.068l0.159-0.162
		l0.093-0.099l0.063-0.065l0.153-0.164l0.034-0.035l0.12-0.135l0.151-0.168l0.091-0.108l0.056-0.062l0.146-0.174l0.097-0.113
		l0.05-0.06l0.143-0.178l0.094-0.118l0.046-0.057l0.14-0.182l0.091-0.123l0.043-0.056l0.136-0.183l0.093-0.131l0.038-0.054
		l0.196-0.282l0.028-0.04l0.034-0.05l0.123-0.191l0.093-0.141l0.03-0.048l0.125-0.193l0.088-0.149l0.026-0.045l0.116-0.196
		l0.116-0.196l0.112-0.199l0.107-0.198l179.733,147.626L260.836,304.649L260.836,304.649z M455.915,395.536l-98.303,54.548
		l-95.276,52.869c-0.655-7.764-5.968-14.198-13.131-16.506l-0.103-158.822l0.342-0.127l0.03-0.013l0.306-0.123l0.022-0.011
		l0.254-0.108l0.112-0.051l0.267-0.116l0.011-0.007c0.209-0.097,0.418-0.196,0.621-0.302l0.023-0.011
		c0.193-0.097,0.383-0.196,0.575-0.302l0.166-0.097l0.193-0.107l0.009-0.003l0.309-0.183l0.021-0.016l0.279-0.174l0.016-0.007
		l0.247-0.163l0.039-0.022l0.192-0.127l0.038-0.027l0.282-0.198l0.054-0.037l0.023-0.017l0.285-0.207l0.27-0.205l0.029-0.02
		l0.216-0.17l0.054-0.043l0.216-0.173l0.058-0.051l0.27-0.231l0.02-0.015l0.252-0.216l0.093-0.086l0.17-0.157l0.161-0.155
		l0.028-0.027l0.2-0.196l0.1-0.093l0.02-0.023l0.25-0.255l0.202-0.217l0.058-0.057l0.225-0.247l0.181-0.205l0.054-0.061l0.229-0.275
		l0.157-0.196l0.065-0.08l0.077-0.094l0.05-0.069l0.195-0.248l0.033-0.045l0.081-0.108l0.189-0.263l0.02-0.027l0.2-0.293
		l0.039-0.056l0.047-0.067l0.173-0.268l0.073-0.111l0.136-0.212l0.069-0.113l0.043-0.076l0.181-0.31l0.007-0.011l0.17-0.302
		l0.056-0.1l0.116-0.217l0.1-0.189l0.023-0.05l0.138-0.278l0.043-0.084l0.02-0.039l0.149-0.323l0.04-0.09l188.505,66.152
		C449.298,388.564,452.062,392.753,455.915,395.536L455.915,395.536z M448.882,358.777L264.942,207.693l65.085-21.249
		c0.437,0.512,0.898,1,1.387,1.461l0.184,0.172c0.618,0.571,1.271,1.1,1.962,1.586l0.209,0.145l0.003,0.004l0.206,0.137l0.211,0.139
		c0.205,0.133,0.418,0.264,0.63,0.39l0.034,0.019c0.213,0.125,0.425,0.247,0.645,0.365l0.224,0.118l0.226,0.117l0.227,0.112
		l0.2,0.097l0.032,0.015l0.23,0.106l0.221,0.098l0.011,0.006l0.236,0.102l0,0l0.235,0.097l0.193,0.078l0.046,0.019l0.24,0.091
		l0.053,0.019l0.189,0.07l0.239,0.086l0.107,0.035l0.14,0.046l0.243,0.08l0.063,0.019l0.026,0.008l0.39,0.116l0.016,0.005
		l0.015,0.004l0.235,0.066l0.22,0.058l0.032,0.007l0.254,0.064l0.17,0.041l0.082,0.02l0.254,0.054l0.128,0.026l0.131,0.028
		l0.259,0.048l0.077,0.015l0.182,0.028l0.26,0.045l0.03,0.003l0.475,0.066l0.015,0.001l0.433,0.05l0.032,0.004l0.063,0.005
		c0.267,0.025,0.534,0.046,0.801,0.062l0.104,0.006h0.043l0.393,0.017h0.051h0.012l0.479,0.008l0.47-0.006l0.022-0.001l0.445-0.015
		l0.043-0.002l0.097-0.008l0.386-0.023l0.011-0.002l0.448-0.038l0.093-0.01l0.4-0.046l0.009-0.001l0.347-0.046l0.055-0.01
		l0.251-0.038l0.203-0.035l0.271-0.048l0.189-0.037l0.243-0.05l0.046-0.012L448.882,358.777L448.882,358.777z M472.428,153.899
		v105.054v102.883c-1.702-0.496-3.501-0.768-5.366-0.768l-0.489,0.009l-0.09,0.003l-0.382,0.011l-0.018,0.004
		c-0.313,0.016-0.622,0.039-0.931,0.069l-0.036,0.004h-0.011l-0.119,0.013L359.238,186.157l0.026-0.032l0.054-0.068l0.22-0.274
		l0.05-0.063l0.226-0.299l0.223-0.308l0.034-0.048l0.229-0.328l0.02-0.033l0.23-0.351l0.013-0.014l0.23-0.373v-0.001l0.222-0.375
		l0.2-0.354l0.016-0.027l0.023-0.041l0.181-0.349c0.127-0.243,0.252-0.492,0.366-0.743l0.032-0.071
		c0.116-0.253,0.227-0.509,0.332-0.77l0.015-0.033l0.139-0.361l0.023-0.06l0.12-0.333l0.042-0.119l0.101-0.295l0.043-0.131
		l0.1-0.323l0.027-0.093l0.104-0.364l0.013-0.045l0.1-0.382l0.017-0.073l0.083-0.366l0.021-0.068
		c0.093-0.424,0.169-0.854,0.231-1.287l0.004-0.011l0.05-0.373l0.011-0.082l0.047-0.397l0.003-0.06l0.04-0.421v-0.039l86.877-28.362
		l0.166,0.222l0.138,0.188l0.055,0.068l0.144,0.185l0.173,0.216l0.004,0.006l0.17,0.208l0.182,0.21
		c0.354,0.414,0.729,0.811,1.118,1.191l0.04,0.039l0.177,0.169l0.201,0.189c0.196,0.18,0.394,0.353,0.599,0.525l0.027,0.023
		l0.153,0.129l0.059,0.048l0.211,0.174l0.216,0.17l0.006,0.001l0.439,0.326l0.004,0.004l0.155,0.112l0.067,0.048l0.229,0.158
		l0.209,0.141l0.051,0.033l0.369,0.237l0.129,0.081l0.177,0.108l0.239,0.141l0.236,0.133l0.007,0.003l0.232,0.13l0.011,0.008
		l0.246,0.131l0.148,0.077l0.1,0.05l0.25,0.124l0.189,0.09l0.063,0.029l0.23,0.106l0.023,0.012l0.259,0.111l0.04,0.017l0.188,0.082
		l0.031,0.011l0.259,0.106l0.054,0.021l0.069,0.027l0.263,0.1l0.227,0.083l0.286,0.101l0.054,0.017l0.375,0.124l0.046,0.013
		l0.058,0.018l0.341,0.102l0.054,0.014l0.047,0.014l0.273,0.075l0.132,0.035l0.054,0.013l0.297,0.073l0.27,0.062l0.082,0.018
		l0.22,0.046l0.063,0.014l0.366,0.068l0.08,0.016l0.402,0.065l0.026,0.004c0.469,0.071,0.941,0.127,1.42,0.164h0.013l0.459,0.029
		l0.043,0.004c0.32,0.015,0.64,0.023,0.965,0.023C468.147,155.073,470.37,154.66,472.428,153.899L472.428,153.899z M329.915,161.871
		c-2.771,3.306-4.442,7.568-4.442,12.221v0.009v0.01v0.012v0.01v0.012v0.01v0.01v0.009l0.004,0.062v0.01v0.012v0.071v0.01v0.062
		v0.01v0.01l0.003,0.04v0.01v0.011v0.01v0.01v0.011v0.01v0.01v0.012v0.003v0.006v0.01v0.009v0.01v0.004v0.007v0.01v0.01v0.01
		l0.006,0.012v0.009v0.012v0.01v0.01v0.01v0.012v0.01v0.009v0.01l0.003,0.01v0.012L256.6,197.233l-0.096-0.098l-0.101-0.096
		l-0.1-0.097l-0.102-0.095l-0.104-0.095c-0.203-0.189-0.412-0.372-0.625-0.552l-0.104-0.089l-0.108-0.088l-0.107-0.087l-0.109-0.086
		c-0.22-0.174-0.439-0.342-0.664-0.506l-0.114-0.081l-0.193-0.137l-0.035-0.025l-0.116-0.077l-0.116-0.08l-0.111-0.077l-0.355-0.228
		l-0.116-0.073l-0.239-0.146l-0.119-0.071l-0.243-0.14l-0.12-0.07l-0.123-0.068l-0.123-0.067l-0.123-0.066l-0.123-0.065
		l-0.252-0.129l-0.124-0.062l-0.126-0.062l-0.125-0.06l-0.131-0.062l-0.382-0.174l-0.131-0.056l-0.005-0.002l-0.247-0.104
		l-0.007-0.004l-0.133-0.054l-0.13-0.053l-0.132-0.052l-0.131-0.05l-0.132-0.05l-0.267-0.097l-0.134-0.046l-0.112-0.038
		l-0.023-0.008l-0.136-0.044l-0.134-0.045l-0.097-155.381l0.015-0.004l0.355-0.105l0.009-0.002l0.257-0.081l0.179-0.058l0.216-0.073
		l0.146-0.05l0.293-0.108l0.316-0.12l0.043-0.02l0.359-0.145l0.026-0.012l0.325-0.143c0.227-0.1,0.45-0.205,0.675-0.314l0.047-0.025
		c0.22-0.108,0.436-0.221,0.648-0.337l0.332-0.186l0.28-0.162L329.915,161.871L329.915,161.871z M262.892,15.265l94.721,52.553
		l96.063,53.318l0.186,0.093l-0.189,0.156l-0.011,0.008l-0.179,0.15l-0.018,0.018l-0.166,0.145l-0.032,0.025l-0.153,0.139
		l-0.04,0.035l-0.143,0.13l-0.05,0.045l-0.131,0.123l-0.059,0.055l-0.12,0.116l-0.063,0.065l-0.113,0.108l-0.073,0.073l-0.1,0.103
		l-0.082,0.085l-0.088,0.09l-0.093,0.097l-0.077,0.086l-0.096,0.104l-0.07,0.078l-0.108,0.115l-0.058,0.068l-0.112,0.129
		l-0.05,0.055l-0.12,0.141l-0.039,0.048l-0.127,0.151l-0.03,0.041l-0.132,0.163l-0.023,0.028l-0.138,0.176l-0.017,0.019
		l-0.143,0.188l-0.007,0.01l-0.146,0.198l0,0l-0.143,0.201l-0.013,0.012l-0.131,0.189l-0.02,0.023l-0.123,0.181l-0.023,0.035
		l-0.112,0.171l-0.03,0.044l-0.105,0.164l-0.034,0.056l-0.097,0.153l-0.043,0.07l-0.089,0.142l-0.045,0.081l-0.082,0.133
		l-0.054,0.093l-0.069,0.122l-0.058,0.106l-0.063,0.112l-0.065,0.118l-0.054,0.101l-0.07,0.128l-0.046,0.093l-0.073,0.141
		l-0.038,0.079l-0.078,0.156l-0.034,0.07l-0.077,0.167l-0.026,0.057l-0.086,0.183l-0.02,0.044l-0.089,0.195l-0.015,0.035
		l-0.089,0.208l-0.008,0.021l-0.093,0.223l-0.004,0.009l-0.093,0.234v0.004l-0.089,0.229l-0.007,0.018l-0.077,0.22l-0.013,0.03
		l-0.073,0.208l-0.015,0.04l-0.065,0.199l-0.017,0.054l-0.061,0.188l-0.02,0.068l-0.056,0.173l-0.021,0.081l-0.052,0.162
		l-0.026,0.095l-0.038,0.151l-0.031,0.108l-0.034,0.137l-0.03,0.122l-0.032,0.125l-0.03,0.137l-0.027,0.113l-0.034,0.15l-0.02,0.101
		l-0.035,0.162l-0.02,0.089l-0.03,0.177l-0.015,0.073l-0.036,0.194l-0.011,0.062l-0.035,0.205l-0.008,0.048l-0.03,0.221
		l-0.005,0.035l-0.034,0.236v0.021l-0.035,0.248v0.008l-0.027,0.259v0.005l-0.023,0.254l-0.003,0.021l-0.021,0.239v0.035
		l-0.014,0.228l-0.004,0.046l-0.013,0.216l-86.548,28.254l-0.162-0.233c-0.211-0.301-0.433-0.597-0.663-0.886l-0.02-0.027
		l-0.183-0.223c-0.239-0.293-0.489-0.579-0.748-0.856l-0.193-0.209l0,0l-0.196-0.202l-0.2-0.203l-0.205-0.199l-0.14-0.133
		l-0.064-0.062l-0.175-0.158l-0.037-0.033l-0.213-0.191l-0.205-0.178l-0.027-0.019l-0.382-0.319l-0.07-0.056l-0.192-0.152
		l-0.228-0.174l-0.205-0.152l-0.023-0.017l-0.196-0.141l-0.034-0.025l-0.235-0.162l-0.196-0.136l-0.04-0.025l-0.239-0.156
		l-0.011-0.01l-0.229-0.145l-0.162-0.099l-0.084-0.05l-0.249-0.145l-0.063-0.041l-0.183-0.101l-0.22-0.124l-0.03-0.015l-0.256-0.136
		l-0.119-0.063l-0.047-0.021l-0.266-0.133l-0.081-0.041l-0.022-0.011l-0.236-0.112l-0.182-0.083l-0.081-0.037l-0.263-0.116
		l-0.08-0.035l-0.073-0.029l-0.355-0.146l-0.026-0.009l-0.271-0.104l-0.051-0.017l-0.184-0.068l-0.036-0.013l-0.273-0.097
		l-0.035-0.012l-0.043-0.016l-0.357-0.115l-0.043-0.013l-0.076-0.023l-0.279-0.083l-0.093-0.027l-0.05-0.013l-0.405-0.111
		l-0.021-0.003l-0.382-0.093l-0.057-0.016l-0.131-0.028l-0.291-0.064l-0.041-0.007l-0.243-0.048l-0.225-0.043l-0.07-0.012
		l-0.293-0.048l-0.107-0.017l-0.046-0.006l-0.418-0.058l-0.011-0.002l-0.009-0.001l-0.437-0.048l-0.069-0.008
		c-0.3-0.028-0.605-0.053-0.911-0.068l-0.018-0.003l-0.066-0.002l-0.302-0.011l-0.12-0.004h-0.022l-0.47-0.006
		c-1.313,0-2.594,0.134-3.83,0.384L261.808,24.892l0.085-0.27l0.023-0.076l0.114-0.382l0.013-0.046l0.107-0.403l0.013-0.035
		l0.007-0.027l0.093-0.378l0.013-0.054l0.073-0.328l0.011-0.063l0.043-0.216l0.037-0.198l0.039-0.199l0.058-0.354l0.009-0.056
		l0.066-0.459v-0.013l0.054-0.46v-0.017l0.043-0.462V20.37l0.022-0.386l0.008-0.143l0.016-0.376l0.004-0.05v-0.086l0.003-0.407
		c0-1.362-0.149-2.687-0.418-3.967L262.892,15.265L262.892,15.265z"/>
</g>
</svg>
